<mxfile host="app.diagrams.net" modified="2023-10-23T21:08:50.383Z" agent="Mozilla/5.0 (Windows NT 10.0; Win64; x64) AppleWebKit/537.36 (KHTML, like Gecko) Chrome/118.0.0.0 Safari/537.36 Edg/118.0.2088.61" etag="wpkVgR0StQLJI9kzFAbf" version="22.0.6" type="google">
  <diagram name="PÃ¡gina-1" id="ubCjAuVMlZikJ_GiGaam">
    <mxGraphModel grid="1" page="1" gridSize="10" guides="1" tooltips="1" connect="1" arrows="1" fold="1" pageScale="1" pageWidth="827" pageHeight="1169" math="0" shadow="0">
      <root>
        <mxCell id="0" />
        <mxCell id="1" parent="0" />
        <mxCell id="KTERP2tRR3JotzlE-X3j-82" value="" style="verticalLabelPosition=bottom;verticalAlign=top;html=1;shape=mxgraph.basic.rect;fillColor2=none;strokeWidth=1;size=20;indent=5;" vertex="1" parent="1">
          <mxGeometry x="-140" y="-110" width="1210" height="1200" as="geometry" />
        </mxCell>
        <mxCell id="KTERP2tRR3JotzlE-X3j-55" style="edgeStyle=orthogonalEdgeStyle;rounded=0;orthogonalLoop=1;jettySize=auto;html=1;entryX=0;entryY=0.5;entryDx=0;entryDy=0;" edge="1" parent="1" source="17QZqOzAMQNos-WmUXGl-2" target="l9BT89TkIvDpswQgX9NO-14">
          <mxGeometry relative="1" as="geometry" />
        </mxCell>
        <mxCell id="xuECjNlx7qJOm8AxAz-m-6" style="edgeStyle=orthogonalEdgeStyle;rounded=0;orthogonalLoop=1;jettySize=auto;html=1;exitX=0.5;exitY=1;exitDx=0;exitDy=0;" edge="1" parent="1" source="17QZqOzAMQNos-WmUXGl-2">
          <mxGeometry relative="1" as="geometry">
            <mxPoint x="70" y="330" as="targetPoint" />
          </mxGeometry>
        </mxCell>
        <mxCell id="17QZqOzAMQNos-WmUXGl-2" value="Quiz Creation" style="rounded=1;whiteSpace=wrap;html=1;arcSize=40;fontColor=#000000;fillColor=#ffffc0;strokeColor=#ff0000;fontFamily=Helvetica;" vertex="1" parent="1">
          <mxGeometry x="10" y="180" width="120" height="40" as="geometry" />
        </mxCell>
        <mxCell id="KTERP2tRR3JotzlE-X3j-57" style="edgeStyle=orthogonalEdgeStyle;rounded=0;orthogonalLoop=1;jettySize=auto;html=1;entryX=0.5;entryY=0;entryDx=0;entryDy=0;" edge="1" parent="1" source="17QZqOzAMQNos-WmUXGl-5" target="17QZqOzAMQNos-WmUXGl-8">
          <mxGeometry relative="1" as="geometry" />
        </mxCell>
        <mxCell id="17QZqOzAMQNos-WmUXGl-5" value="&lt;font face=&quot;Courier New&quot;&gt;create_quiz()&lt;/font&gt;" style="html=1;whiteSpace=wrap;" vertex="1" parent="1">
          <mxGeometry x="10" y="333.13" width="120" height="47.5" as="geometry" />
        </mxCell>
        <mxCell id="l9BT89TkIvDpswQgX9NO-22" style="edgeStyle=orthogonalEdgeStyle;rounded=0;orthogonalLoop=1;jettySize=auto;html=1;exitX=0.5;exitY=1;exitDx=0;exitDy=0;entryX=0.497;entryY=-0.086;entryDx=0;entryDy=0;entryPerimeter=0;strokeColor=#FF6666;" edge="1" parent="1" source="17QZqOzAMQNos-WmUXGl-8" target="l9BT89TkIvDpswQgX9NO-23">
          <mxGeometry relative="1" as="geometry">
            <mxPoint x="90" y="657.5" as="targetPoint" />
          </mxGeometry>
        </mxCell>
        <mxCell id="l9BT89TkIvDpswQgX9NO-24" style="edgeStyle=orthogonalEdgeStyle;rounded=0;orthogonalLoop=1;jettySize=auto;html=1;exitX=1;exitY=0.5;exitDx=0;exitDy=0;entryX=0;entryY=0.5;entryDx=0;entryDy=0;strokeColor=#FF6666;" edge="1" parent="1" source="17QZqOzAMQNos-WmUXGl-8" target="17QZqOzAMQNos-WmUXGl-15">
          <mxGeometry relative="1" as="geometry" />
        </mxCell>
        <mxCell id="17QZqOzAMQNos-WmUXGl-8" value="&lt;p style=&quot;line-height: 100%;&quot;&gt;&lt;font style=&quot;font-size: 12px;&quot;&gt;Question Exists?&lt;/font&gt;&lt;/p&gt;" style="rhombus;whiteSpace=wrap;html=1;fontColor=#000000;fillColor=#ffffc0;strokeColor=#ff0000;fontFamily=Helvetica;" vertex="1" parent="1">
          <mxGeometry x="-10" y="500" width="160" height="77.5" as="geometry" />
        </mxCell>
        <mxCell id="17QZqOzAMQNos-WmUXGl-12" value="" style="verticalLabelPosition=bottom;verticalAlign=top;html=1;shape=mxgraph.basic.polygon;polyCoords=[[0.25,0],[0.75,0],[1,0.25],[1,0.75],[0.75,1],[0.25,1],[0,0.75],[0,0.25]];polyline=0;fillColor=#fad9d5;strokeColor=#ae4132;" vertex="1" parent="1">
          <mxGeometry x="875" y="-40" width="100" height="100" as="geometry" />
        </mxCell>
        <mxCell id="17QZqOzAMQNos-WmUXGl-13" value="Quiz = Question" style="text;html=1;align=center;verticalAlign=middle;resizable=0;points=[];autosize=1;strokeColor=none;fillColor=none;" vertex="1" parent="1">
          <mxGeometry x="870" y="-5" width="110" height="30" as="geometry" />
        </mxCell>
        <mxCell id="l9BT89TkIvDpswQgX9NO-31" style="edgeStyle=orthogonalEdgeStyle;rounded=0;orthogonalLoop=1;jettySize=auto;html=1;exitX=0.5;exitY=1;exitDx=0;exitDy=0;entryX=0.5;entryY=0;entryDx=0;entryDy=0;" edge="1" parent="1" source="17QZqOzAMQNos-WmUXGl-15" target="l9BT89TkIvDpswQgX9NO-28">
          <mxGeometry relative="1" as="geometry" />
        </mxCell>
        <mxCell id="17QZqOzAMQNos-WmUXGl-15" value="&lt;font face=&quot;Courier New&quot;&gt;new_quiz()&lt;/font&gt;" style="html=1;whiteSpace=wrap;" vertex="1" parent="1">
          <mxGeometry x="230" y="513.75" width="120" height="50" as="geometry" />
        </mxCell>
        <mxCell id="KTERP2tRR3JotzlE-X3j-23" style="edgeStyle=orthogonalEdgeStyle;rounded=0;orthogonalLoop=1;jettySize=auto;html=1;" edge="1" parent="1" source="l9BT89TkIvDpswQgX9NO-14" target="KTERP2tRR3JotzlE-X3j-15">
          <mxGeometry relative="1" as="geometry" />
        </mxCell>
        <mxCell id="l9BT89TkIvDpswQgX9NO-14" value="create_quiz()" style="rounded=0;whiteSpace=wrap;html=1;" vertex="1" parent="1">
          <mxGeometry x="520" y="175.63" width="120" height="50" as="geometry" />
        </mxCell>
        <mxCell id="l9BT89TkIvDpswQgX9NO-16" value="&lt;span style=&quot;font-size: 14px;&quot;&gt;Save&lt;/span&gt;" style="text;strokeColor=none;align=center;fillColor=none;html=1;verticalAlign=middle;whiteSpace=wrap;rounded=0;" vertex="1" parent="1">
          <mxGeometry x="160" y="175.63" width="60" height="30" as="geometry" />
        </mxCell>
        <mxCell id="l9BT89TkIvDpswQgX9NO-18" value="&lt;span style=&quot;font-size: 14px;&quot;&gt;no&lt;br&gt;&lt;/span&gt;" style="text;strokeColor=none;align=center;fillColor=none;html=1;verticalAlign=middle;whiteSpace=wrap;rounded=0;" vertex="1" parent="1">
          <mxGeometry x="160" y="513.75" width="60" height="30" as="geometry" />
        </mxCell>
        <mxCell id="l9BT89TkIvDpswQgX9NO-21" value="&lt;font style=&quot;font-size: 14px;&quot;&gt;yes&lt;/font&gt;" style="text;strokeColor=none;align=center;fillColor=none;html=1;verticalAlign=middle;whiteSpace=wrap;rounded=0;" vertex="1" parent="1">
          <mxGeometry x="65" y="597.5" width="60" height="30" as="geometry" />
        </mxCell>
        <mxCell id="l9BT89TkIvDpswQgX9NO-30" style="edgeStyle=orthogonalEdgeStyle;rounded=0;orthogonalLoop=1;jettySize=auto;html=1;exitX=1;exitY=0.5;exitDx=0;exitDy=0;entryX=0;entryY=0.5;entryDx=0;entryDy=0;" edge="1" parent="1" source="l9BT89TkIvDpswQgX9NO-23" target="l9BT89TkIvDpswQgX9NO-28">
          <mxGeometry relative="1" as="geometry" />
        </mxCell>
        <mxCell id="l9BT89TkIvDpswQgX9NO-23" value="update_quiz()" style="rounded=0;whiteSpace=wrap;html=1;" vertex="1" parent="1">
          <mxGeometry x="10" y="657.5" width="120" height="50" as="geometry" />
        </mxCell>
        <mxCell id="NK7Kaa08Wwm5epFpTquD-3" style="edgeStyle=orthogonalEdgeStyle;rounded=0;orthogonalLoop=1;jettySize=auto;html=1;exitX=1;exitY=0.5;exitDx=0;exitDy=0;entryX=0;entryY=0.5;entryDx=0;entryDy=0;" edge="1" parent="1" source="l9BT89TkIvDpswQgX9NO-28" target="NK7Kaa08Wwm5epFpTquD-2">
          <mxGeometry relative="1" as="geometry" />
        </mxCell>
        <mxCell id="l9BT89TkIvDpswQgX9NO-28" value="Quiz &lt;br&gt;in_evaluation(2)" style="rounded=1;whiteSpace=wrap;html=1;arcSize=40;fontColor=#000000;fillColor=#ffffc0;strokeColor=#ff0000;fontFamily=Helvetica;" vertex="1" parent="1">
          <mxGeometry x="230" y="662.5" width="120" height="40" as="geometry" />
        </mxCell>
        <mxCell id="KTERP2tRR3JotzlE-X3j-13" style="edgeStyle=orthogonalEdgeStyle;rounded=0;orthogonalLoop=1;jettySize=auto;html=1;exitX=0.5;exitY=1;exitDx=0;exitDy=0;entryX=0.497;entryY=-0.086;entryDx=0;entryDy=0;entryPerimeter=0;strokeColor=#FF6666;" edge="1" parent="1" source="KTERP2tRR3JotzlE-X3j-15" target="KTERP2tRR3JotzlE-X3j-21">
          <mxGeometry relative="1" as="geometry">
            <mxPoint x="610" y="413.13" as="targetPoint" />
          </mxGeometry>
        </mxCell>
        <mxCell id="KTERP2tRR3JotzlE-X3j-14" style="edgeStyle=orthogonalEdgeStyle;rounded=0;orthogonalLoop=1;jettySize=auto;html=1;exitX=1;exitY=0.5;exitDx=0;exitDy=0;entryX=0;entryY=0.5;entryDx=0;entryDy=0;strokeColor=#FF6666;" edge="1" parent="1" source="KTERP2tRR3JotzlE-X3j-15">
          <mxGeometry relative="1" as="geometry">
            <mxPoint x="750" y="294.38" as="targetPoint" />
            <Array as="points">
              <mxPoint x="710" y="294" />
              <mxPoint x="710" y="294" />
            </Array>
          </mxGeometry>
        </mxCell>
        <mxCell id="KTERP2tRR3JotzlE-X3j-15" value="&lt;p style=&quot;line-height: 100%;&quot;&gt;&lt;font style=&quot;font-size: 12px;&quot;&gt;Question Exists?&lt;/font&gt;&lt;/p&gt;" style="rhombus;whiteSpace=wrap;html=1;fontColor=#000000;fillColor=#ffffc0;strokeColor=#ff0000;fontFamily=Helvetica;" vertex="1" parent="1">
          <mxGeometry x="500" y="255.63" width="160" height="77.5" as="geometry" />
        </mxCell>
        <mxCell id="KTERP2tRR3JotzlE-X3j-16" style="edgeStyle=orthogonalEdgeStyle;rounded=0;orthogonalLoop=1;jettySize=auto;html=1;exitX=0.5;exitY=1;exitDx=0;exitDy=0;entryX=0.5;entryY=0;entryDx=0;entryDy=0;" edge="1" parent="1">
          <mxGeometry relative="1" as="geometry">
            <mxPoint x="810" y="319.38" as="sourcePoint" />
            <mxPoint x="810" y="418.13" as="targetPoint" />
          </mxGeometry>
        </mxCell>
        <mxCell id="KTERP2tRR3JotzlE-X3j-17" value="&lt;font face=&quot;Courier New&quot;&gt;new_quiz()&lt;/font&gt;" style="html=1;whiteSpace=wrap;" vertex="1" parent="1">
          <mxGeometry x="750" y="263.75" width="120" height="50" as="geometry" />
        </mxCell>
        <mxCell id="KTERP2tRR3JotzlE-X3j-18" value="&lt;span style=&quot;font-size: 14px;&quot;&gt;no&lt;br&gt;&lt;/span&gt;" style="text;strokeColor=none;align=center;fillColor=none;html=1;verticalAlign=middle;whiteSpace=wrap;rounded=0;" vertex="1" parent="1">
          <mxGeometry x="680" y="269.38" width="60" height="30" as="geometry" />
        </mxCell>
        <mxCell id="KTERP2tRR3JotzlE-X3j-19" value="&lt;font style=&quot;font-size: 14px;&quot;&gt;yes&lt;/font&gt;" style="text;strokeColor=none;align=center;fillColor=none;html=1;verticalAlign=middle;whiteSpace=wrap;rounded=0;" vertex="1" parent="1">
          <mxGeometry x="570" y="350.63" width="60" height="30" as="geometry" />
        </mxCell>
        <mxCell id="KTERP2tRR3JotzlE-X3j-20" style="edgeStyle=orthogonalEdgeStyle;rounded=0;orthogonalLoop=1;jettySize=auto;html=1;exitX=1;exitY=0.5;exitDx=0;exitDy=0;entryX=0;entryY=0.5;entryDx=0;entryDy=0;" edge="1" parent="1" source="KTERP2tRR3JotzlE-X3j-21">
          <mxGeometry relative="1" as="geometry">
            <mxPoint x="750" y="438.13" as="targetPoint" />
          </mxGeometry>
        </mxCell>
        <mxCell id="KTERP2tRR3JotzlE-X3j-21" value="update_quiz()" style="rounded=0;whiteSpace=wrap;html=1;" vertex="1" parent="1">
          <mxGeometry x="520" y="413.13" width="120" height="50" as="geometry" />
        </mxCell>
        <mxCell id="KTERP2tRR3JotzlE-X3j-58" style="edgeStyle=orthogonalEdgeStyle;rounded=0;orthogonalLoop=1;jettySize=auto;html=1;entryX=1;entryY=0.5;entryDx=0;entryDy=0;" edge="1" parent="1" source="KTERP2tRR3JotzlE-X3j-22" target="l9BT89TkIvDpswQgX9NO-14">
          <mxGeometry relative="1" as="geometry">
            <Array as="points">
              <mxPoint x="950" y="433" />
              <mxPoint x="950" y="201" />
            </Array>
          </mxGeometry>
        </mxCell>
        <mxCell id="KTERP2tRR3JotzlE-X3j-22" value="Quiz&lt;br&gt;not_submitted(1)" style="rounded=1;whiteSpace=wrap;html=1;arcSize=40;fontColor=#000000;fillColor=#ffffc0;strokeColor=#ff0000;fontFamily=Helvetica;" vertex="1" parent="1">
          <mxGeometry x="750" y="423.13" width="120" height="40" as="geometry" />
        </mxCell>
        <mxCell id="xuECjNlx7qJOm8AxAz-m-8" style="edgeStyle=orthogonalEdgeStyle;rounded=0;orthogonalLoop=1;jettySize=auto;html=1;exitX=0.5;exitY=1;exitDx=0;exitDy=0;entryX=1;entryY=0.5;entryDx=0;entryDy=0;" edge="1" parent="1" source="KTERP2tRR3JotzlE-X3j-22" target="17QZqOzAMQNos-WmUXGl-5">
          <mxGeometry relative="1" as="geometry">
            <Array as="points">
              <mxPoint x="810" y="530" />
              <mxPoint x="440" y="530" />
              <mxPoint x="440" y="357" />
            </Array>
          </mxGeometry>
        </mxCell>
        <mxCell id="KTERP2tRR3JotzlE-X3j-60" style="edgeStyle=orthogonalEdgeStyle;rounded=0;orthogonalLoop=1;jettySize=auto;html=1;entryX=0.5;entryY=0;entryDx=0;entryDy=0;" edge="1" parent="1" target="17QZqOzAMQNos-WmUXGl-2">
          <mxGeometry relative="1" as="geometry">
            <mxPoint x="70" y="70" as="sourcePoint" />
            <Array as="points">
              <mxPoint x="70" y="90" />
              <mxPoint x="70" y="90" />
            </Array>
          </mxGeometry>
        </mxCell>
        <mxCell id="KTERP2tRR3JotzlE-X3j-50" value="Creator" style="shape=umlActor;verticalLabelPosition=bottom;verticalAlign=top;html=1;" vertex="1" parent="1">
          <mxGeometry x="55" y="-20" width="30" height="60" as="geometry" />
        </mxCell>
        <mxCell id="xuECjNlx7qJOm8AxAz-m-7" value="&lt;font style=&quot;font-size: 14px;&quot;&gt;Submit&lt;/font&gt;" style="text;html=1;align=center;verticalAlign=middle;resizable=0;points=[];autosize=1;strokeColor=none;fillColor=none;" vertex="1" parent="1">
          <mxGeometry x="60" y="263.75" width="70" height="30" as="geometry" />
        </mxCell>
        <mxCell id="xuECjNlx7qJOm8AxAz-m-9" value="&lt;font style=&quot;font-size: 14px;&quot;&gt;Submit&lt;/font&gt;" style="text;html=1;align=center;verticalAlign=middle;resizable=0;points=[];autosize=1;strokeColor=none;fillColor=none;" vertex="1" parent="1">
          <mxGeometry x="595" y="500" width="70" height="30" as="geometry" />
        </mxCell>
        <mxCell id="NK7Kaa08Wwm5epFpTquD-1" style="edgeStyle=orthogonalEdgeStyle;rounded=0;orthogonalLoop=1;jettySize=auto;html=1;exitX=0.5;exitY=0;exitDx=0;exitDy=0;entryX=0.5;entryY=1;entryDx=0;entryDy=0;" edge="1" parent="1" source="xuECjNlx7qJOm8AxAz-m-10" target="l9BT89TkIvDpswQgX9NO-28">
          <mxGeometry relative="1" as="geometry" />
        </mxCell>
        <mxCell id="xuECjNlx7qJOm8AxAz-m-10" value="vote()" style="rounded=0;whiteSpace=wrap;html=1;" vertex="1" parent="1">
          <mxGeometry x="230" y="825" width="120" height="50" as="geometry" />
        </mxCell>
        <mxCell id="KTERP2tRR3JotzlE-X3j-69" value="" style="edgeStyle=orthogonalEdgeStyle;rounded=0;orthogonalLoop=1;jettySize=auto;html=1;" edge="1" parent="1" source="KTERP2tRR3JotzlE-X3j-65" target="KTERP2tRR3JotzlE-X3j-66">
          <mxGeometry relative="1" as="geometry" />
        </mxCell>
        <mxCell id="KTERP2tRR3JotzlE-X3j-65" value="User" style="shape=umlActor;verticalLabelPosition=bottom;verticalAlign=top;html=1;" vertex="1" parent="1">
          <mxGeometry x="-70" y="820" width="30" height="60" as="geometry" />
        </mxCell>
        <mxCell id="KTERP2tRR3JotzlE-X3j-67" style="edgeStyle=orthogonalEdgeStyle;rounded=0;orthogonalLoop=1;jettySize=auto;html=1;entryX=0;entryY=0.5;entryDx=0;entryDy=0;" edge="1" parent="1" source="KTERP2tRR3JotzlE-X3j-66" target="xuECjNlx7qJOm8AxAz-m-10">
          <mxGeometry relative="1" as="geometry" />
        </mxCell>
        <mxCell id="KTERP2tRR3JotzlE-X3j-66" value="quiz()" style="rounded=0;whiteSpace=wrap;html=1;" vertex="1" parent="1">
          <mxGeometry x="6" y="825" width="120" height="50" as="geometry" />
        </mxCell>
        <mxCell id="KTERP2tRR3JotzlE-X3j-72" style="edgeStyle=orthogonalEdgeStyle;rounded=0;orthogonalLoop=1;jettySize=auto;html=1;strokeColor=#FF6666;entryX=0.5;entryY=0;entryDx=0;entryDy=0;" edge="1" parent="1" source="NK7Kaa08Wwm5epFpTquD-2" target="NK7Kaa08Wwm5epFpTquD-4">
          <mxGeometry relative="1" as="geometry">
            <mxPoint x="540" y="820" as="targetPoint" />
          </mxGeometry>
        </mxCell>
        <mxCell id="KTERP2tRR3JotzlE-X3j-73" style="edgeStyle=orthogonalEdgeStyle;rounded=0;orthogonalLoop=1;jettySize=auto;html=1;entryX=0;entryY=0.5;entryDx=0;entryDy=0;strokeColor=#FF6666;" edge="1" parent="1" source="NK7Kaa08Wwm5epFpTquD-2" target="KTERP2tRR3JotzlE-X3j-74">
          <mxGeometry relative="1" as="geometry">
            <mxPoint x="680" y="682.5" as="targetPoint" />
          </mxGeometry>
        </mxCell>
        <mxCell id="NK7Kaa08Wwm5epFpTquD-2" value="&lt;p style=&quot;line-height: 100%;&quot;&gt;&lt;font style=&quot;font-size: 12px;&quot;&gt;Aproved x3?&lt;/font&gt;&lt;/p&gt;" style="rhombus;whiteSpace=wrap;html=1;fontColor=#000000;fillColor=#ffffc0;strokeColor=#ff0000;fontFamily=Helvetica;" vertex="1" parent="1">
          <mxGeometry x="460" y="643.75" width="160" height="77.5" as="geometry" />
        </mxCell>
        <mxCell id="KTERP2tRR3JotzlE-X3j-75" style="edgeStyle=orthogonalEdgeStyle;rounded=0;orthogonalLoop=1;jettySize=auto;html=1;strokeColor=#FF6666;" edge="1" parent="1" source="KTERP2tRR3JotzlE-X3j-74" target="l9BT89TkIvDpswQgX9NO-28">
          <mxGeometry relative="1" as="geometry">
            <Array as="points">
              <mxPoint x="760" y="624" />
              <mxPoint x="340" y="624" />
            </Array>
          </mxGeometry>
        </mxCell>
        <mxCell id="KTERP2tRR3JotzlE-X3j-74" value="&lt;p style=&quot;line-height: 100%;&quot;&gt;&lt;font style=&quot;font-size: 12px;&quot;&gt;Disaproved x3?&lt;/font&gt;&lt;/p&gt;" style="rhombus;whiteSpace=wrap;html=1;fontColor=#000000;fillColor=#ffffc0;strokeColor=#ff0000;fontFamily=Helvetica;" vertex="1" parent="1">
          <mxGeometry x="680" y="643.75" width="160" height="77.5" as="geometry" />
        </mxCell>
        <mxCell id="NK7Kaa08Wwm5epFpTquD-7" style="edgeStyle=orthogonalEdgeStyle;rounded=0;orthogonalLoop=1;jettySize=auto;html=1;exitX=0.5;exitY=1;exitDx=0;exitDy=0;entryX=0.5;entryY=0;entryDx=0;entryDy=0;strokeColor=none;" edge="1" parent="1" source="KTERP2tRR3JotzlE-X3j-74" target="NK7Kaa08Wwm5epFpTquD-5">
          <mxGeometry relative="1" as="geometry" />
        </mxCell>
        <mxCell id="NK7Kaa08Wwm5epFpTquD-13" style="edgeStyle=orthogonalEdgeStyle;rounded=0;orthogonalLoop=1;jettySize=auto;html=1;exitX=0.5;exitY=1;exitDx=0;exitDy=0;entryX=0.5;entryY=0;entryDx=0;entryDy=0;" edge="1" parent="1" source="NK7Kaa08Wwm5epFpTquD-4" target="KTERP2tRR3JotzlE-X3j-80">
          <mxGeometry relative="1" as="geometry" />
        </mxCell>
        <mxCell id="KTERP2tRR3JotzlE-X3j-81" value="x20" style="edgeLabel;html=1;align=center;verticalAlign=middle;resizable=0;points=[];" vertex="1" connectable="0" parent="NK7Kaa08Wwm5epFpTquD-13">
          <mxGeometry x="-0.2875" y="2" relative="1" as="geometry">
            <mxPoint x="-2" y="12" as="offset" />
          </mxGeometry>
        </mxCell>
        <mxCell id="NK7Kaa08Wwm5epFpTquD-4" value="Quiz &lt;br&gt;accepted(4)" style="rounded=1;whiteSpace=wrap;html=1;arcSize=40;fontColor=#000000;fillColor=#ffffc0;strokeColor=#ff0000;fontFamily=Helvetica;" vertex="1" parent="1">
          <mxGeometry x="480" y="830" width="120" height="40" as="geometry" />
        </mxCell>
        <mxCell id="NK7Kaa08Wwm5epFpTquD-8" value="&lt;span style=&quot;font-size: 14px;&quot;&gt;yes&lt;br&gt;&lt;/span&gt;" style="text;html=1;align=center;verticalAlign=middle;resizable=0;points=[];autosize=1;strokeColor=none;fillColor=none;" vertex="1" parent="1">
          <mxGeometry x="530" y="758" width="50" height="30" as="geometry" />
        </mxCell>
        <mxCell id="NK7Kaa08Wwm5epFpTquD-9" value="&lt;font size=&quot;3&quot;&gt;no&lt;br&gt;&lt;/font&gt;" style="text;html=1;align=center;verticalAlign=middle;resizable=0;points=[];autosize=1;strokeColor=none;fillColor=none;" vertex="1" parent="1">
          <mxGeometry x="540" y="597.5" width="40" height="30" as="geometry" />
        </mxCell>
        <mxCell id="KTERP2tRR3JotzlE-X3j-79" value="&lt;font size=&quot;3&quot;&gt;no&lt;br&gt;&lt;/font&gt;" style="text;html=1;align=center;verticalAlign=middle;resizable=0;points=[];autosize=1;strokeColor=none;fillColor=none;" vertex="1" parent="1">
          <mxGeometry x="620" y="657.5" width="40" height="30" as="geometry" />
        </mxCell>
        <mxCell id="KTERP2tRR3JotzlE-X3j-78" style="edgeStyle=orthogonalEdgeStyle;rounded=0;orthogonalLoop=1;jettySize=auto;html=1;strokeColor=#FF6666;" edge="1" parent="1" source="KTERP2tRR3JotzlE-X3j-74">
          <mxGeometry relative="1" as="geometry">
            <mxPoint x="760" y="830" as="targetPoint" />
          </mxGeometry>
        </mxCell>
        <mxCell id="NK7Kaa08Wwm5epFpTquD-5" value="Quiz &lt;br&gt;rejected(3)" style="rounded=1;whiteSpace=wrap;html=1;arcSize=40;fontColor=#000000;fillColor=#ffffc0;strokeColor=#ff0000;fontFamily=Helvetica;" vertex="1" parent="1">
          <mxGeometry x="700" y="830" width="120" height="40" as="geometry" />
        </mxCell>
        <mxCell id="NK7Kaa08Wwm5epFpTquD-11" value="&lt;font style=&quot;font-size: 14px;&quot;&gt;yes&lt;/font&gt;" style="text;html=1;align=center;verticalAlign=middle;resizable=0;points=[];autosize=1;strokeColor=none;fillColor=none;" vertex="1" parent="1">
          <mxGeometry x="750" y="758" width="50" height="30" as="geometry" />
        </mxCell>
        <mxCell id="KTERP2tRR3JotzlE-X3j-80" value="Test Creation" style="rounded=1;whiteSpace=wrap;html=1;arcSize=40;fontColor=#000000;fillColor=#ffffc0;strokeColor=#ff0000;fontFamily=Helvetica;" vertex="1" parent="1">
          <mxGeometry x="480" y="990" width="120" height="40" as="geometry" />
        </mxCell>
      </root>
    </mxGraphModel>
  </diagram>
</mxfile>
